<svg width="513" height="513" viewBox="0 0 513 513" fill="none" xmlns="http://www.w3.org/2000/svg">
<path d="M243.338 87.7332C230.313 88.7698 210.683 93.4812 197.564 98.5696C186.899 102.81 168.495 112.61 163.116 117.133C160.284 119.3 160.851 120.054 167.268 122.41C169.817 123.352 177.272 126.838 183.785 130.231C190.297 133.623 198.413 137.392 201.811 138.523L207.946 140.69H202.472C195.488 140.784 180.293 142.386 173.497 143.8C164.248 145.59 145.939 152.092 135.746 156.992C127.252 161.043 124.703 162.834 118.286 169.43C110.358 177.345 104.223 187.051 106.016 188.747C106.677 189.312 110.735 188.464 117.814 186.297C129.894 182.622 133.103 181.774 139.993 180.266C159.435 176.214 191.241 173.859 203.604 175.46C208.134 176.12 213.892 176.591 216.251 176.591C218.61 176.591 222.669 176.968 225.123 177.439C227.576 177.91 232.673 178.758 236.259 179.418C242.771 180.549 260.892 185.355 264.573 186.862C265.611 187.333 269.009 188.653 272.123 189.878C279.296 192.516 292.415 198.924 294.397 200.714C296.662 202.693 297.417 202.316 296.851 199.395C296.473 196.945 292.32 184.789 290.527 180.832C290.055 179.795 288.357 175.084 286.752 170.466L283.826 161.986L273.256 157.557C252.776 149.076 231.257 142.763 221.819 142.575C219.365 142.48 216.157 142.103 214.552 141.726C212.665 141.161 214.08 141.067 218.799 141.255C252.398 142.951 273.067 143.517 273.917 142.669C274.672 141.915 272.878 137.298 263.535 116.473C262.308 113.74 261.27 111.291 261.27 111.102C261.27 110.914 260.043 107.898 258.438 104.506C256.928 101.114 255.607 98.0984 255.607 97.91C255.607 97.6273 254.663 95.3658 253.531 92.9158C251.454 88.3928 250.227 86.9794 248.529 87.2621C248.057 87.3563 245.697 87.5448 243.338 87.7332ZM278.258 89.7121C278.258 90.5601 279.485 92.8216 280.901 94.612C288.451 104.035 302.419 130.419 308.931 147.851C324.598 189.218 329.6 224.46 325.447 263.659C324.881 268.841 324.692 273.176 324.881 273.459C325.164 273.647 328.845 270.726 333.092 266.957C337.339 263.093 343.851 257.251 347.532 253.953C351.213 250.655 354.799 246.698 355.554 245.002C356.593 242.74 356.876 235.956 356.97 214.094C357.064 197.887 357.348 187.145 357.82 188.653C358.952 192.233 359.896 195.72 362.255 204.389C363.293 208.535 365.181 215.131 366.502 218.994C367.729 222.858 368.956 227.192 369.239 228.606C370.466 233.977 369.994 234.354 404.065 201.373C410.672 194.966 416.051 189.312 416.051 188.935C416.051 188.464 414.541 185.166 412.654 181.585C398.497 154.919 386.039 139.277 365.181 122.033C361.406 118.923 357.914 116.473 357.536 116.756C357.159 117.038 356.593 122.41 356.215 128.723C355.838 135.13 354.799 143.517 353.95 147.38C353.101 151.244 352.346 157.84 352.346 162.08C352.346 168.299 352.157 169.43 351.213 168.205C350.552 167.357 349.986 166.226 349.986 165.661C349.986 164.341 344.229 150.207 340.831 143.14C330.827 122.127 313.273 100.831 300.437 93.9524C295.624 91.4082 284.487 88.0159 280.995 88.0159C279.013 88.0159 278.258 88.4871 278.258 89.7121ZM180.293 203.729C176.989 204.766 151.507 236.709 144.334 248.676C142.635 251.598 141.031 253.859 140.842 253.671C140.653 253.388 141.597 250.373 142.919 246.698C144.24 243.117 147.449 234.448 149.903 227.475C152.356 220.502 154.905 213.623 155.471 212.21C156.887 208.535 155.754 208.252 145.844 209.477C136.218 210.608 117.719 212.869 105.639 214.377C93.8414 215.885 93.6527 215.979 92.4257 222.952C89.9719 236.898 89.5 241.986 89.5 257.157C89.5 268.088 89.9719 275.532 91.0101 280.714C94.974 300.22 97.2391 308.041 99.0323 308.041C99.7873 308.041 105.733 302.293 112.151 295.32C118.569 288.347 125.081 281.562 126.685 280.243C128.195 278.924 130.272 276.568 131.31 275.061C132.254 273.459 132.914 272.893 132.726 273.647C132.065 275.626 129.422 287.31 128.29 292.964C127.818 295.508 126.874 304.366 126.213 312.469C124.231 338.854 128.101 357.04 139.143 373.53C143.202 379.655 145.278 381.257 146.505 379.372C146.788 378.901 147.637 371.174 148.392 362.128C151.129 331.221 155.565 311.15 165.192 285.897C176.046 257.628 193.506 230.019 212.853 210.702C216.157 207.498 218.799 204.483 218.799 204.012C218.799 203.354 182.463 203.07 180.293 203.729ZM134.141 270.349C133.858 271.197 133.386 271.668 133.197 271.386C132.914 271.103 133.009 270.538 133.386 269.972C134.236 268.465 134.802 268.747 134.141 270.349ZM413.22 229.077C404.726 240.007 382.641 262.905 372.259 271.668C352.912 287.781 332.526 299.843 308.271 309.548C295.246 314.731 275.615 321.139 266.744 323.023C265.234 323.4 264.101 323.965 264.101 324.437C264.101 325.19 269.953 328.771 282.977 336.027C285.336 337.346 289.395 339.607 291.943 341.209C299.021 345.355 299.399 345.355 307.327 342.905C311.291 341.68 319.69 339.042 325.919 337.158C332.148 335.179 342.341 331.41 348.57 328.583C354.799 325.85 359.424 323.965 358.952 324.342C358.386 324.813 351.402 329.619 343.38 334.896C335.357 340.267 325.825 346.769 322.239 349.407L315.821 354.119L318.275 356.286C319.69 357.417 323.843 360.149 327.618 362.317C342.53 370.891 357.253 379.561 361.406 382.105C363.765 383.612 366.219 384.837 366.785 384.837C367.352 384.837 372.637 380.032 378.583 374.095C396.798 355.815 410.577 334.142 419.355 309.925C421.997 302.67 422.375 299.56 420.582 300.314C419.921 300.597 415.391 302.575 410.577 304.648C405.764 306.816 401.234 308.512 400.479 308.512C399.724 308.512 398.214 308.889 396.987 309.36C395.76 309.831 392.551 310.679 389.72 311.339C386.888 311.998 380.659 314.166 375.752 316.144C370.938 318.123 366.974 319.631 366.974 319.442C366.974 319.348 372.071 314.919 378.3 309.548C390.191 299.277 395.76 293.153 405.481 278.924C412.842 268.182 416.901 260.455 420.676 249.619C423.413 241.703 423.696 240.29 423.413 230.773C423.224 222.481 422.847 220.408 421.714 220.219C420.865 220.125 417.278 223.8 413.22 229.077ZM194.355 286.557C193.789 288.535 193.317 290.703 193.317 291.456C193.317 292.116 191.712 298.995 189.825 306.722L186.333 320.667L193.789 331.786C205.397 349.407 210.116 355.532 217.761 363.447C238.336 384.743 259.665 397.276 289.112 405.662C298.078 408.206 301.098 408.583 311.763 408.677C323.56 408.772 324.315 408.677 331.582 405.756C340.265 402.27 343.191 400.291 341.869 399.066C341.398 398.595 336.773 396.616 331.582 394.731C319.313 390.303 298.927 380.314 283.449 371.174C278.824 368.442 260.326 355.815 259.382 354.778C259.099 354.496 257.023 352.705 254.663 350.915C235.693 336.404 207.946 304.931 200.018 288.912C198.413 285.708 196.62 283.07 196.148 283.07C195.676 283.07 194.827 284.672 194.355 286.557ZM180.67 341.681C180.481 342.34 179.821 344.79 179.349 347.146C177.556 354.873 176.234 359.772 170.1 382.67C165.853 398.312 165.664 397.181 173.214 401.422C200.678 416.875 221.725 423.377 250.039 425.073C255.418 425.356 259.382 425.262 259.665 424.696C259.948 424.225 258.627 421.681 256.645 419.043C254.758 416.498 249.661 407.547 245.414 399.16C240.79 390.114 236.165 382.576 234.089 380.409C226.538 372.682 210.305 360.055 194.261 349.313C190.391 346.675 186.333 343.659 185.389 342.529C183.407 340.361 181.142 339.89 180.67 341.681Z" fill="black"></path>
</svg>
